<?xml version="1.0" standalone="no"?>
<!DOCTYPE svg PUBLIC "-//W3C//DTD SVG 20010904//EN"
 "http://www.w3.org/TR/2001/REC-SVG-20010904/DTD/svg10.dtd">
<svg version="1.0" xmlns="http://www.w3.org/2000/svg"
 width="361.000000pt" height="361.000000pt" viewBox="0 0 361.000000 361.000000"
 preserveAspectRatio="xMidYMid meet">
<metadata>
Created by potrace 1.14, written by Peter Selinger 2001-2017
</metadata>
<g transform="translate(0.000000,361.000000) scale(0.100000,-0.100000)"
fill="#000000" stroke="none">
<path d="M1489 3592 c-164 -61 -259 -205 -246 -372 29 -371 526 -460 688 -123
29 60 33 78 33 148 -1 101 -26 170 -89 242 -67 76 -152 116 -259 120 -58 2
-94 -2 -127 -15z"/>
<path d="M2020 2854 c-96 -18 -195 -36 -220 -40 -25 -3 -47 -8 -50 -9 -3 -2
-46 -11 -95 -19 -144 -26 -149 -27 -168 -32 -12 -4 -16 -13 -12 -32 2 -15 14
-76 25 -137 12 -60 27 -143 34 -183 15 -82 20 -92 34 -65 6 10 74 110 152 223
78 113 145 211 149 218 6 10 35 -3 117 -53 60 -37 110 -68 111 -69 2 -1 -73
-110 -165 -242 -323 -462 -315 -448 -309 -491 3 -21 10 -58 16 -83 5 -25 12
-61 15 -80 3 -19 12 -73 21 -120 8 -47 15 -86 15 -87 0 -2 -182 -3 -405 -3
-223 0 -405 -3 -406 -7 0 -5 -1 -349 -2 -766 0 -530 3 -761 10 -765 8 -5 324
-8 353 -3 3 1 5 264 4 586 l-1 585 28 0 c23 0 30 -6 35 -27 13 -57 69 -180
110 -245 45 -70 111 -137 233 -237 41 -33 80 -74 87 -90 14 -33 27 -217 35
-479 2 -56 7 -92 13 -93 57 -4 770 -3 777 2 5 3 11 59 14 125 9 261 21 411 35
449 5 12 44 51 87 86 172 140 264 243 325 367 l33 67 3 728 3 727 -251 0 -250
0 0 -611 0 -610 -31 3 -32 3 -23 115 c-21 110 -73 383 -80 425 -2 11 -12 67
-23 125 -11 58 -22 116 -24 130 -7 34 -19 102 -22 121 -2 9 -14 74 -28 145
-14 71 -35 181 -47 244 -12 63 -24 122 -25 130 -2 8 -7 36 -11 63 -3 26 -9 47
-13 46 -3 0 -85 -16 -181 -35z"/>
<path d="M1872 2722 c-11 -15 -72 -106 -137 -202 -65 -96 -155 -229 -200 -295
-45 -66 -128 -189 -184 -272 -56 -84 -106 -153 -111 -153 -6 0 -18 7 -27 15
-10 8 -82 61 -160 117 -77 57 -205 150 -283 206 -158 116 -138 113 -197 27
-15 -22 -32 -43 -38 -48 -13 -9 -16 -7 266 -212 128 -93 287 -210 353 -258 65
-48 123 -86 128 -85 7 3 149 201 378 528 6 8 67 96 137 195 70 99 155 220 189
270 35 49 60 93 56 97 -5 5 -40 28 -80 52 l-72 45 -18 -27z"/>
<path d="M2705 2665 c-38 -7 -81 -18 -95 -24 -27 -11 -60 -35 -60 -43 0 -3
117 -5 259 -5 143 0 258 4 255 9 -9 15 -81 47 -128 58 -74 16 -156 18 -231 5z"/>
</g>
</svg>
